<svg id="visual" viewBox="0 0 2440 750" width="2440" height="750" xmlns="http://www.w3.org/2000/svg" xmlns:xlink="http://www.w3.org/1999/xlink" version="1.1"><rect x="0" y="0" width="2440" height="750" fill="#fff"></rect><path d="M0 440L58.2 453.2C116.3 466.3 232.7 492.7 348.8 495C465 497.3 581 475.7 697.2 476.2C813.3 476.7 929.7 499.3 1045.8 509.7C1162 520 1278 518 1394.2 512C1510.3 506 1626.7 496 1742.8 488.2C1859 480.3 1975 474.7 2091.2 484.3C2207.3 494 2323.7 519 2381.8 531.5L2440 544L2440 751L2381.8 751C2323.7 751 2207.3 751 2091.2 751C1975 751 1859 751 1742.8 751C1626.7 751 1510.3 751 1394.2 751C1278 751 1162 751 1045.8 751C929.7 751 813.3 751 697.2 751C581 751 465 751 348.8 751C232.7 751 116.3 751 58.2 751L0 751Z" fill="#b3badf"></path><path d="M0 551L58.2 543.2C116.3 535.3 232.7 519.7 348.8 520.8C465 522 581 540 697.2 547.2C813.3 554.3 929.7 550.7 1045.8 540C1162 529.3 1278 511.7 1394.2 505.2C1510.3 498.7 1626.7 503.3 1742.8 507.3C1859 511.3 1975 514.7 2091.2 525.7C2207.3 536.7 2323.7 555.3 2381.8 564.7L2440 574L2440 751L2381.8 751C2323.7 751 2207.3 751 2091.2 751C1975 751 1859 751 1742.8 751C1626.7 751 1510.3 751 1394.2 751C1278 751 1162 751 1045.8 751C929.7 751 813.3 751 697.2 751C581 751 465 751 348.8 751C232.7 751 116.3 751 58.2 751L0 751Z" fill="#969fd6"></path><path d="M0 597L58.2 589C116.3 581 232.7 565 348.8 557.5C465 550 581 551 697.2 553.3C813.3 555.7 929.7 559.3 1045.8 570.5C1162 581.7 1278 600.3 1394.2 607.7C1510.3 615 1626.7 611 1742.8 600C1859 589 1975 571 2091.2 566.2C2207.3 561.3 2323.7 569.7 2381.8 573.8L2440 578L2440 751L2381.8 751C2323.7 751 2207.3 751 2091.2 751C1975 751 1859 751 1742.8 751C1626.7 751 1510.3 751 1394.2 751C1278 751 1162 751 1045.8 751C929.7 751 813.3 751 697.2 751C581 751 465 751 348.8 751C232.7 751 116.3 751 58.2 751L0 751Z" fill="#7a85cc"></path><path d="M0 655L58.2 657.7C116.3 660.3 232.7 665.7 348.8 656.8C465 648 581 625 697.2 622.5C813.3 620 929.7 638 1045.8 648.3C1162 658.7 1278 661.3 1394.2 653.5C1510.3 645.7 1626.7 627.3 1742.8 620C1859 612.7 1975 616.3 2091.2 627.3C2207.3 638.3 2323.7 656.7 2381.8 665.8L2440 675L2440 751L2381.8 751C2323.7 751 2207.3 751 2091.2 751C1975 751 1859 751 1742.8 751C1626.7 751 1510.3 751 1394.2 751C1278 751 1162 751 1045.8 751C929.7 751 813.3 751 697.2 751C581 751 465 751 348.8 751C232.7 751 116.3 751 58.2 751L0 751Z" fill="#5e6bc1"></path><path d="M0 690L58.2 693.5C116.3 697 232.7 704 348.8 708.2C465 712.3 581 713.7 697.2 711.3C813.3 709 929.7 703 1045.8 696.5C1162 690 1278 683 1394.2 682.2C1510.3 681.3 1626.7 686.7 1742.8 689.5C1859 692.3 1975 692.7 2091.2 690.7C2207.3 688.7 2323.7 684.3 2381.8 682.2L2440 680L2440 751L2381.8 751C2323.7 751 2207.3 751 2091.2 751C1975 751 1859 751 1742.8 751C1626.7 751 1510.3 751 1394.2 751C1278 751 1162 751 1045.8 751C929.7 751 813.3 751 697.2 751C581 751 465 751 348.8 751C232.7 751 116.3 751 58.2 751L0 751Z" fill="#3f51b5"></path></svg>